<?xml version="1.0" encoding="utf-8"?>
<!-- Generator: Adobe Illustrator 23.0.3, SVG Export Plug-In . SVG Version: 6.00 Build 0)  -->
<svg version="1.1" id="hat_1_" xmlns="http://www.w3.org/2000/svg" xmlns:xlink="http://www.w3.org/1999/xlink" x="0px" y="0px"
	 viewBox="0 0 720 720" style="enable-background:new 0 0 720 720;" xml:space="preserve">
<style type="text/css">
	.st0{fill:#414042;}
	.st1{fill:#F7941D;}
	.st2{fill:#D1D3D4;}
	.st3{fill:#FBB040;}
</style>
<g id="hat">
	<g>
		<path d="M360,518.9c-44.09,0-151.39-80.32-151.39-80.32v-93.75h302.79v93.75C511.39,438.57,404.09,518.9,360,518.9z"/>
		<polygon class="st0" points="360,440.72 137.44,307.71 137.44,299.59 360,210.75 582.56,299.59 582.56,307.71 		"/>
		<polygon points="360,432.59 137.44,299.59 360,201.1 582.56,299.59 		"/>
	</g>
	<path class="st1" d="M475.96,412.12c0,0,7.91,27.84,6.64,30.25c-1.27,2.41-9.77,6.35-9.77,6.35v-37.57L475.96,412.12z"/>
	<g>
		<g>
			<polygon class="st2" points="475.26,412.12 470.18,412.12 470.18,366.62 358.63,295.04 361.37,290.77 475.26,363.84 			"/>
		</g>
		<path class="st3" d="M475.99,412.12h-6.32c-1.12,0-2.04-0.92-2.04-2.04v-0.06c0-1.12,0.92-2.04,2.04-2.04h6.32
			c1.12,0,2.04,0.92,2.04,2.04v0.06C478.03,411.2,477.11,412.12,475.99,412.12z"/>
		<path class="st3" d="M469.7,412.12c0,0-7.91,27.84-6.64,30.25c1.27,2.41,9.77,6.35,9.77,6.35v-37.57L469.7,412.12z"/>
		<path class="st1" d="M475.96,407.97h-3.13v4.15h3.13c1.14,0,2.07-0.93,2.07-2.07C478.03,408.91,477.1,407.97,475.96,407.97z"/>
	</g>
	<ellipse class="st0" cx="360" cy="292.91" rx="36.21" ry="14.81"/>
</g>
</svg>
